# xmcd
#
# Track frame offsets: 
#        150
#        17062
#        32710
#        54407
#        69747
#        90682
#        108847
#        127807
#        147227
#        167157
#
# Disc length: 2426 seconds
#
# Revision: 0
# Processed by: cddbd v1.5.2PL0 Copyright (c) Steve Scherf et al.
# Submitted via: ExactAudioCopy v0.99pb5
#
DISCID=8009780a
DTITLE=方季惟 - 我的愛，那麼容易受傷害
DYEAR=1900
DGENRE=
TTITLE0=我的愛，那麼容易受傷害
TTITLE1=我的唯一
TTITLE2=抓不住的心情
TTITLE3=不分色
TTITLE4=走過傷心
TTITLE5=你說
TTITLE6=叫我如何溫柔
TTITLE7=冷了我的心
TTITLE8=所有的夢都是你
TTITLE9=我的愛，那麼容易受傷害
EXTD=
EXTT0=
EXTT1=
EXTT2=
EXTT3=
EXTT4=
EXTT5=
EXTT6=
EXTT7=
EXTT8=
EXTT9=
PLAYORDER=
